<svg data-v-0dd9719b="" version="1.0" xmlns="http://www.w3.org/2000/svg" xmlns:xlink="http://www.w3.org/1999/xlink" width="100%" height="100%" viewBox="0 0 340.000000 250.000000" preserveAspectRatio="xMidYMid meet" color-interpolation-filters="sRGB" style="margin: auto;"> <rect data-v-0dd9719b="" x="0" y="0" width="100%" height="100%" fill="#fff" fill-opacity="1" class="background"></rect> <rect data-v-0dd9719b="" x="0" y="0" width="100%" height="100%" fill="url(#watermark)" fill-opacity="1" class="watermarklayer"></rect> <g data-v-0dd9719b="" fill="#333" class="icon-text-wrapper icon-svg-group iconsvg" transform="translate(48.19999694824219,94.99069595336914)"><g class="iconsvg-imagesvg" transform="translate(0,0)"><g><rect fill="#333" fill-opacity="0" stroke-width="2" x="0" y="0" width="60" height="60.01860576778802" class="image-rect"></rect> <svg x="0" y="0" width="60" height="60.01860576778802" filtersec="colorsb531294073" class="image-svg-svg primary" style="overflow: visible;"><svg xmlns="http://www.w3.org/2000/svg" viewBox="-0.0004231940256431699 -0.00042338765342719853 96.32041931152344 96.35041809082031"><path d="M46.51 80.55a32.43 32.43 0 0 1 0-64.78V0h-.38a1.79 1.79 0 0 0-1.77 1.53l-.26 1.82a4.71 4.71 0 0 1-3.75 3.94 41.1 41.1 0 0 0-5.86 1.57 4.7 4.7 0 0 1-5.22-1.54l-1.13-1.44a1.78 1.78 0 0 0-2.3-.44l-3.52 2a1.78 1.78 0 0 0-.76 2.21l.68 1.71A4.67 4.67 0 0 1 21 16.67 43.43 43.43 0 0 0 16.67 21a4.67 4.67 0 0 1-5.28 1.28l-1.71-.68a1.78 1.78 0 0 0-2.21.76l-2 3.52a1.78 1.78 0 0 0 .44 2.3l1.44 1.13a4.7 4.7 0 0 1 1.54 5.22 41.1 41.1 0 0 0-1.57 5.86 4.71 4.71 0 0 1-3.97 3.71l-1.82.26A1.79 1.79 0 0 0 0 46.13v4.06A1.79 1.79 0 0 0 1.53 52l1.82.26A4.69 4.69 0 0 1 7.29 56a41.45 41.45 0 0 0 1.57 5.86 4.7 4.7 0 0 1-1.54 5.22l-1.44 1.1a1.78 1.78 0 0 0-.44 2.3l2 3.51a1.77 1.77 0 0 0 2.21.77l1.71-.68a4.68 4.68 0 0 1 5.28 1.27 42.48 42.48 0 0 0 4.36 4.3 4.67 4.67 0 0 1 1.28 5.28l-.68 1.71a1.78 1.78 0 0 0 .76 2.21l3.52 2a1.78 1.78 0 0 0 2.3-.44L29.27 89a4.7 4.7 0 0 1 5.22-1.54A41.1 41.1 0 0 0 40.35 89a4.69 4.69 0 0 1 3.75 4l.26 1.81a1.8 1.8 0 0 0 1.77 1.54h.38z" fill="#0087ff"></path><path d="M94.78 44.36L93 44.1a4.69 4.69 0 0 1-4-3.75 41.1 41.1 0 0 0-1.57-5.86A4.69 4.69 0 0 1 89 29.27l1.44-1.13a1.79 1.79 0 0 0 .44-2.3l-2-3.52a1.78 1.78 0 0 0-2.21-.76l-1.71.68A4.68 4.68 0 0 1 79.65 21a42.48 42.48 0 0 0-4.3-4.29 4.68 4.68 0 0 1-1.27-5.28l.68-1.71A1.78 1.78 0 0 0 74 7.47l-3.52-2a1.78 1.78 0 0 0-2.3.44l-1.13 1.41a4.7 4.7 0 0 1-5.22 1.54A41.45 41.45 0 0 0 56 7.29a4.69 4.69 0 0 1-3.75-3.94L52 1.53A1.79 1.79 0 0 0 50.19 0h-.38v15.77a32.43 32.43 0 0 1 0 64.78v15.77h.38A1.8 1.8 0 0 0 52 94.78l.22-1.78A4.66 4.66 0 0 1 56 89a41.45 41.45 0 0 0 5.86-1.57A4.69 4.69 0 0 1 67.05 89l1.13 1.44a1.79 1.79 0 0 0 2.3.44l3.52-2a1.78 1.78 0 0 0 .76-2.21l-.68-1.71a4.68 4.68 0 0 1 1.27-5.28 41.56 41.56 0 0 0 4.3-4.3 4.68 4.68 0 0 1 5.28-1.27l1.71.68a1.78 1.78 0 0 0 2.21-.79l2-3.51a1.78 1.78 0 0 0-.44-2.3L89 67.05a4.7 4.7 0 0 1-1.54-5.22A41.45 41.45 0 0 0 89 56a4.66 4.66 0 0 1 4-3.78l1.78-.22a1.8 1.8 0 0 0 1.54-1.77v-4.1a1.8 1.8 0 0 0-1.54-1.77z" fill="#ff006f"></path><path d="M49.81 21.19v13.93h8a3.06 3.06 0 1 1 0 1.83h-8v10.3h12.68a3.05 3.05 0 1 1 0 1.82H49.81v10.3h8a3.06 3.06 0 1 1 0 1.82h-8v13.94a27 27 0 0 0 0-53.94zM21.13 48.16a27 27 0 0 0 25.38 27V21.19a27 27 0 0 0-25.38 26.97zm22.18-13h-4.85a3.06 3.06 0 1 0 0 1.83h4.85v10.3h-9.49a3.05 3.05 0 1 0 0 1.82h9.49v10.3h-4.85a3.06 3.06 0 1 0 0 1.83h4.85v10.24a23.82 23.82 0 0 1 0-46.64z" fill="#2a3294"></path></svg></svg> <!----></g></g> <g transform="translate(67,15.654303550720215)"><g data-gra="path-name" fill-rule="" class="tp-name iconsvg-namesvg"><g transform="scale(1)"><g><path d="M5.6 0.24Q4.44 0.24 3.74-0.48 3.04-1.2 3.04-2.36L3.04-2.36 3.04-25.83Q3.04-26.99 3.74-27.69 4.44-28.39 5.6-28.39L5.6-28.39Q6.8-28.39 7.5-27.69 8.2-26.99 8.2-25.83L8.2-25.83 8.2-2.36Q8.2-1.2 7.5-0.48 6.8 0.24 5.6 0.24L5.6 0.24ZM16.76 0Q15.6 0 14.94-0.64 14.28-1.28 14.28-2.44L14.28-2.44 14.28-25.75Q14.28-26.91 14.94-27.55 15.6-28.19 16.76-28.19L16.76-28.19 24.67-28.19Q31.59-28.19 35.41-24.49 39.23-20.8 39.23-14.12L39.23-14.12Q39.23-7.4 35.41-3.7 31.59 0 24.67 0L24.67 0 16.76 0ZM24.35-4.2Q34.07-4.2 34.07-14.12L34.07-14.12Q34.07-23.99 24.35-23.99L24.35-23.99 19.44-23.99 19.44-4.2 24.35-4.2ZM69.26-3.08Q69.5-2.56 69.5-2.04L69.5-2.04Q69.5-1.12 68.76-0.48 68.02 0.16 67.07 0.16L67.07 0.16Q66.43 0.16 65.87-0.18 65.31-0.52 64.99-1.24L64.99-1.24 62.59-6.6 48.51-6.6 46.11-1.24Q45.79-0.52 45.23-0.18 44.67 0.16 43.99 0.16L43.99 0.16Q43.07 0.16 42.31-0.48 41.55-1.12 41.55-2.04L41.55-2.04Q41.55-2.56 41.79-3.08L41.79-3.08 52.83-26.79Q53.19-27.59 53.93-28.01 54.67-28.43 55.51-28.43L55.51-28.43Q56.35-28.43 57.09-28.01 57.83-27.59 58.19-26.79L58.19-26.79 69.26-3.08ZM55.55-22.48L50.27-10.6 60.83-10.6 55.55-22.48ZM106.06-26.83Q106.34-27.63 106.96-28.03 107.58-28.43 108.34-28.43L108.34-28.43Q109.3-28.43 110-27.83 110.7-27.23 110.7-26.23L110.7-26.23Q110.7-25.87 110.5-25.19L110.5-25.19 101.9-1.4Q101.58-0.6 100.84-0.16 100.1 0.28 99.22 0.28L99.22 0.28Q98.34 0.28 97.58-0.16 96.82-0.6 96.54-1.4L96.54-1.4 89.9-20.24 83.14-1.4Q82.82-0.6 82.08-0.16 81.34 0.28 80.46 0.28L80.46 0.28Q79.58 0.28 78.84-0.16 78.1-0.6 77.82-1.4L77.82-1.4 69.22-25.19Q69.02-25.79 69.02-26.23L69.02-26.23Q69.02-27.23 69.76-27.83 70.5-28.43 71.5-28.43L71.5-28.43Q72.3-28.43 72.94-28.03 73.58-27.63 73.86-26.83L73.86-26.83 80.66-7.28 87.66-26.71Q87.94-27.51 88.58-27.97 89.22-28.43 89.98-28.43L89.98-28.43Q90.74-28.43 91.4-27.97 92.06-27.51 92.34-26.67L92.34-26.67 99.14-7.04 106.06-26.83ZM117.57 0Q116.41 0 115.75-0.64 115.09-1.28 115.09-2.44L115.09-2.44 115.09-25.75Q115.09-26.91 115.75-27.55 116.41-28.19 117.57-28.19L117.57-28.19 132.01-28.19Q133.17-28.19 133.81-27.67 134.45-27.15 134.45-26.19L134.45-26.19Q134.45-25.19 133.81-24.65 133.17-24.11 132.01-24.11L132.01-24.11 120.13-24.11 120.13-16.36 131.21-16.36Q132.37-16.36 133.01-15.84 133.65-15.32 133.65-14.32L133.65-14.32Q133.65-13.36 133.01-12.84 132.37-12.32 131.21-12.32L131.21-12.32 120.13-12.32 120.13-4.08 132.01-4.08Q133.17-4.08 133.81-3.54 134.45-3 134.45-2L134.45-2Q134.45-1.04 133.81-0.52 133.17 0 132.01 0L132.01 0 117.57 0ZM141.09 0Q139.93 0 139.29-0.64 138.65-1.28 138.65-2.4L138.65-2.4 138.65-25.83Q138.65-26.99 139.35-27.69 140.05-28.39 141.21-28.39L141.21-28.39Q142.41-28.39 143.11-27.69 143.81-26.99 143.81-25.83L143.81-25.83 143.81-4.24 155.05-4.24Q157.45-4.24 157.45-2.12L157.45-2.12Q157.45 0 155.05 0L155.05 0 141.09 0ZM163.28 0Q162.12 0 161.48-0.64 160.84-1.28 160.84-2.4L160.84-2.4 160.84-25.83Q160.84-26.99 161.54-27.69 162.24-28.39 163.4-28.39L163.4-28.39Q164.6-28.39 165.3-27.69 166-26.99 166-25.83L166-25.83 166-4.24 177.24-4.24Q179.64-4.24 179.64-2.12L179.64-2.12Q179.64 0 177.24 0L177.24 0 163.28 0Z" transform="translate(-3.0399999618530273, 28.43000030517578)"></path></g> <!----> <!----> <!----> <!----> <!----> <!----> <!----></g></g> <!----></g></g><defs v-gra="od"></defs></svg>